{"title":"Goo_Goo_Dolls_Private_Sessions_20110109","uid":6094346,"size":1163143904,"categoryP":"video","categoryS":"tv_shows","magnet":"?xt=urn:btih:4931af6e353e4ec7b427a5f07115a8ea9d42f908&amp;dn=Goo_Goo_Dolls_Private_Sessions_20110109&amp;tr=udp%3A%2F%2Ftracker.openbittorrent.com%3A80&amp;tr=udp%3A%2F%2Fopen.demonii.com%3A1337&amp;tr=udp%3A%2F%2Ftracker.coppersurfer.tk%3A6969&amp;tr=udp%3A%2F%2Fexodus.desync.com%3A6969","seeders":1,"leechers":0,"uploader":"thetorrentlord","files":13,"time":1294699894,"description":"This is from a SD broadcast. It includes an MP3 of the entire show and also the individual tracks. Video also for the individual tracks. Sorry no track list was available that I could find, so the tracks are just numbered.***************************************************************************************************************************************************************************************************************************Private_Sessions_The_Goo_Goo_Dolls_20110109.avi\nFormat                           : AVI\nFormat/Info                      : Audio Video Interleave\nFile size                        : 701 MiB\nDuration                         : 1h 25mn\nOverall bit rate                 : 1 142 Kbps\nMovie name                       : Private_Sessions_The_Goo_Goo_Dolls_20110109.mpg\nDirector                         : created.with.SUPER(C).v2010.bld.37\nWriting application              : SUPER(C)   \n\nVideo\nID                               : 0\nFormat                           : MPEG-4 Visual\nFormat profile                   : Simple@L3\nFormat settings, BVOP            : No\nFormat settings, QPel            : No\nFormat settings, GMC             : No warppoints\nFormat settings, Matrix          : Default (H.263)\nCodec ID                         : XVID\nCodec ID/Hint                    : XviD\nDuration                         : 42mn 56s\nBit rate                         : 2 160 Kbps\nWidth                            : 624 pixels\nHeight                           : 352 pixels\nDisplay aspect ratio             : 16:9\nFrame rate                       : 23.976 fps\nColor space                      : YUV\nChroma subsampling               : 4:2:0\nBit depth                        : 8 bits\nScan type                        : Progressive\nBits/(Pixel*Frame)               : 0.410\nStream size                      : 663 MiB (95%)\nWriting library                  : XviD 1.1.2 (UTC 2006-11-01)\n\nAudio\nID                               : 1\nFormat                           : MPEG Audio\nFormat version                   : Version 2\nFormat profile                   : Layer 3\nMode                             : Joint stereo\nMode extension                   : MS Stereo\nCodec ID                         : 55\nCodec ID/Hint                    : MP3\nDuration                         : 1h 25mn\nBit rate mode                    : Constant\nBit rate                         : 112 Kbps\nChannel(s)                       : 2 channels\nSampling rate                    : 22.05 KHz\nStream size                      : 34.4 MiB (5%)\nAlignment                        : Aligned on interleaves\nInterleave, duration             : 26 ms (0.63 video frame)\nInterleave, preload duration     : 26 ms\nWriting library                  : LAME3.98\n\n\n","torrent":{"xt":"urn:btih:4931af6e353e4ec7b427a5f07115a8ea9d42f908","amp;dn":"Goo_Goo_Dolls_Private_Sessions_20110109","amp;tr":["udp%3A%2F%2Ftracker.openbittorrent.com%3A80","udp%3A%2F%2Fopen.demonii.com%3A1337","udp%3A%2F%2Ftracker.coppersurfer.tk%3A6969","udp%3A%2F%2Fexodus.desync.com%3A6969"],"infoHash":"4931af6e353e4ec7b427a5f07115a8ea9d42f908","infoHashBuffer":{"type":"Buffer","data":[73,49,175,110,53,62,78,199,180,39,165,240,113,21,168,234,157,66,249,8]},"announce":[],"urlList":[]}}